<?xml version="1.0" encoding="UTF-8" standalone="no"?>
<!DOCTYPE svg PUBLIC "-//W3C//DTD SVG 20010904//EN"
              "http://www.w3.org/TR/2001/REC-SVG-20010904/DTD/svg10.dtd">

<svg xmlns="http://www.w3.org/2000/svg"
     width="3.33333in" height="3.33333in"
     viewBox="0 0 240 240">
     <circle cx="120" cy="120" r="120" fill="#f3ba2e"/>
  <path id="Selection"
        fill="#fff"
        d="M 157.00,103.80
           C 177.25,84.00 157.25,103.75 177.80,83.00
             120.75,25.62 122.55,25.79 119.88,25.12
             110.50,33.38 75.25,69.75 62.20,83.00
             83.62,105.38 62.77,82.93 83.00,105.00
             83.00,105.00 120.00,68.00 120.00,68.00
             144.56,91.07 127.48,74.14 157.00,103.80 Z
           M 25.20,120.12
           C 25.20,120.12 45.62,141.00 45.62,141.00
             45.62,141.00 65.80,120.12 65.80,120.12
             65.80,120.12 45.62,99.00 45.62,99.00
             45.62,99.00 25.20,120.12 25.20,120.12 Z
           M 99.20,120.00
           C 119.50,140.62 116.88,137.50 120.00,140.80
             124.12,137.00 136.50,124.00 140.80,120.00
             120.25,99.25 124.50,103.38 120.00,99.20
             115.12,103.75 119.88,99.00 99.20,120.00 Z
           M 173.20,120.00
           C 177.50,124.00 188.88,135.25 194.00,140.80
             200.00,135.12 208.00,127.62 214.80,120.00
             208.38,113.25 198.38,103.25 194.00,99.20
             189.38,103.38 179.88,113.25 173.20,120.00 Z
           M 62.20,157.00
           C 66.50,161.62 116.38,211.84 120.25,215.00
             124.12,211.09 175.25,159.88 177.94,157.06
             175.94,154.62 159.44,138.56 157.12,136.75
             154.94,138.94 120.25,173.75 120.25,173.75
             120.25,173.75 83.00,135.00 83.00,135.00
             78.38,140.00 65.25,154.00 62.20,157.00 Z
           M 178.50,82.25" />
</svg>
