<svg version="1.2" baseProfile="tiny-ps" xmlns="http://www.w3.org/2000/svg" viewBox="0 0 1051 254" width="1051" height="254">
	<style>
		tspan { white-space:pre }
		.shp0 { fill: #11ae87 } 
		.shp1 { fill: #1be2ae } 
	</style>
	<g>
		<g>
			<g>
				<path fill-rule="evenodd" class="shp0" d="M401.97 126.98C401.97 160.28 374.48 183.98 335.37 183.98L293.77 183.98L293.77 70.15L335.37 70.15C374.48 70.15 401.97 93.68 401.97 126.98ZM372.97 126.98C372.97 108.74 359.07 95.83 339.67 95.83L322.12 95.83L322.12 158.3L339.67 158.3C359.07 158.3 372.97 145.18 372.97 126.98Z" />
				<path class="shp0" d="M432.47 113.21L432.47 138.55L518.5 138.55L518.5 113.21L432.47 113.21ZM432.47 70.15L432.47 95.49L518.5 95.49L518.5 70.15L432.47 70.15ZM432.47 158.6L432.47 183.98L518.5 183.98L518.5 158.6L432.47 158.6Z" />
				<path class="shp0" d="M657.94 70.15L625.29 70.15L600.59 104.09L576.24 70.15L542.95 70.15L560.8 94.97L584.03 127.28L560.8 159.33L542.95 183.98L575.6 183.98L600.29 149.82L624.81 183.98L657.94 183.98L617.03 126.81L657.94 70.15Z" />
				<path class="shp0" d="M740.35 158.6L740.35 70.15L712.18 70.15L712.18 183.98L795.21 183.98L795.21 158.6L740.35 158.6Z" />
				<path fill-rule="evenodd" class="shp0" d="M933.04 126.98C933.04 158.94 905.03 185.96 871.74 185.96C838.61 185.96 810.6 158.94 810.6 126.98C810.6 94.97 838.61 68.13 871.74 68.13C905.03 68.13 933.04 94.97 933.04 126.98ZM903.87 126.98C903.87 109.08 889.12 93.81 871.74 93.81C854.35 93.81 839.6 109.08 839.6 126.98C839.6 145 854.35 160.28 871.74 160.28C889.12 160.28 903.87 145 903.87 126.98Z" />
				<path class="shp0" d="M953.03 70.15L953.03 95.49L987.62 95.49L987.62 183.98L1015.97 183.98L1015.97 95.49L1050.43 95.49L1050.43 70.15L953.03 70.15Z" />
			</g>
			<path class="shp0" d="M59.77 136.08L97.35 253.5L0.72 136.08L59.77 136.08ZM171.81 118L134.23 0.59L230.85 118L171.81 118Z" />
			<path class="shp0" d="M155.72 127.04L115.79 251.79L75.86 127.04L115.79 2.29L155.72 127.04Z" />
			<path class="shp1" d="M59.77 118L0.72 118L97.35 0.59L59.77 118Z" />
			<path class="shp1" d="M171.81 136.08L230.85 136.08L134.23 253.5L171.81 136.08Z" />
		</g>
	</g>
</svg>